<?xml version="1.0" encoding="UTF-8"?>
<!DOCTYPE svg PUBLIC "-//W3C//DTD SVG 1.1//EN" "http://www.w3.org/Graphics/SVG/1.1/DTD/svg11.dtd">
<svg xmlns="http://www.w3.org/2000/svg" version="1.1" width="107px" height="80px" style="shape-rendering:geometricPrecision; text-rendering:geometricPrecision; image-rendering:optimizeQuality; fill-rule:evenodd; clip-rule:evenodd" xmlns:xlink="http://www.w3.org/1999/xlink">
<g><path style="opacity:0.669" fill="#f3c76e" d="M 89.5,-0.5 C 93.8333,-0.5 98.1667,-0.5 102.5,-0.5C 104.167,0.5 105.5,1.83333 106.5,3.5C 106.5,6.83333 106.5,10.1667 106.5,13.5C 104.141,33.0581 101.641,52.7248 99,72.5C 97.6811,74.4875 95.8477,75.6541 93.5,76C 79.5098,80.1681 74.1765,75.3347 77.5,61.5C 75.1667,61.5 72.8333,61.5 70.5,61.5C 71.2213,67.0011 69.888,71.8344 66.5,76C 55.2473,77.76 43.914,78.4266 32.5,78C 31.6667,77.1667 30.8333,76.3333 30,75.5C 29.5027,71.4761 29.6693,67.4761 30.5,63.5C 28.1667,63.5 25.8333,63.5 23.5,63.5C 22.9552,66.8131 22.4552,70.1464 22,73.5C 20.9791,76.3501 19.1458,78.3501 16.5,79.5C 11.8333,79.5 7.16667,79.5 2.5,79.5C 1.83333,78.1667 0.833333,77.1667 -0.5,76.5C -0.5,72.1667 -0.5,67.8333 -0.5,63.5C 1.72968,44.5689 4.22968,25.5689 7,6.5C 8.31892,4.51255 10.1523,3.34588 12.5,3C 16.9558,2.13273 21.2891,2.46607 25.5,4C 26.3333,4.83333 27.1667,5.66667 28,6.5C 29,10.5 30,14.5 31,18.5C 32.5242,16.1019 34.0242,13.7686 35.5,11.5C 35.3492,6.48627 37.6826,3.3196 42.5,2C 51.7893,2.44628 61.1227,2.11294 70.5,1C 72.286,1.78451 73.786,2.95118 75,4.5C 76,8.5 77,12.5 78,16.5C 80.8606,12.1122 83.1939,7.44553 85,2.5C 86.6516,1.60064 88.1516,0.60064 89.5,-0.5 Z M 35.5,11.5 C 36.793,10.158 37.6264,8.49131 38,6.5C 38.9025,5.29857 40.0692,4.46524 41.5,4C 51.4968,3.1567 61.4968,2.82336 71.5,3C 74.3179,8.09407 75.9846,13.5941 76.5,19.5C 77.675,19.719 78.675,19.3857 79.5,18.5C 81.6258,14.2891 83.4591,9.95575 85,5.5C 86.1667,4.33333 87.3333,3.16667 88.5,2C 92.4213,1.79696 96.2546,1.29696 100,0.5C 103.376,1.04426 105.21,3.04426 105.5,6.5C 103.002,28.1467 100.502,49.8133 98,71.5C 97.0975,72.7014 95.9308,73.5348 94.5,74C 89.1911,75.9264 84.0245,75.7597 79,73.5C 78.6905,72.2341 78.1905,71.0674 77.5,70C 78.471,66.8653 78.971,63.6986 79,60.5C 76.0466,60.5783 73.0466,60.245 70,59.5C 69.0071,63.4423 68.3404,67.4423 68,71.5C 67.5,73.3333 66.3333,74.5 64.5,75C 54.8103,75.1646 45.1436,75.8312 35.5,77C 32.5,76.6667 30.8333,75 30.5,72C 31.1667,69 31.8333,66 32.5,63C 31.9747,62.3076 31.3081,61.8076 30.5,61.5C 27.9665,62.7883 25.4665,62.7883 23,61.5C 21.8554,65.7272 20.8554,70.0606 20,74.5C 16.9622,77.35 13.2956,78.6834 9,78.5C 3.9671,79.0784 1.13377,76.9117 0.5,72C 2.78152,50.4659 5.28152,28.9659 8,7.5C 8.90252,6.29857 10.0692,5.46524 11.5,5C 15.8333,4.33333 20.1667,4.33333 24.5,5C 27.3179,10.0941 28.9846,15.5941 29.5,21.5C 33.4766,19.5768 35.4766,16.2434 35.5,11.5 Z"/></g>
<g><path style="opacity:0.928" fill="#f3c76e" d="M 66.5,39.5 C 65.6675,49.8045 64.8342,60.1378 64,70.5C 59.9215,71.6295 55.7548,71.7961 51.5,71C 54.0602,49.5688 56.3935,28.0688 58.5,6.5C 62.5,6.5 66.5,6.5 70.5,6.5C 72.3485,15.8947 74.5151,25.2281 77,34.5C 80.5957,24.6999 84.7623,15.1999 89.5,6C 93.1516,5.50137 96.8183,5.3347 100.5,5.5C 98.7956,26.8772 96.6289,48.2106 94,69.5C 89.9215,70.6295 85.7548,70.7961 81.5,70C 83.2885,59.1903 84.7885,48.357 86,37.5C 83.6065,43.2874 80.9398,48.9541 78,54.5C 75.6194,55.435 73.1194,55.7683 70.5,55.5C 69.7683,49.9063 68.435,44.5729 66.5,39.5 Z"/></g>
<g><path style="opacity:0.928" fill="#f3c76e" d="M 19.5,41.5 C 18.6675,51.8045 17.8342,62.1378 17,72.5C 12.9215,73.6295 8.75483,73.7961 4.5,73C 7.06016,51.5688 9.39349,30.0688 11.5,8.5C 15.5,8.5 19.5,8.5 23.5,8.5C 25.3485,17.8947 27.5151,27.2281 30,36.5C 33.5957,26.6999 37.7623,17.1999 42.5,8C 46.1516,7.50137 49.8183,7.3347 53.5,7.5C 51.7956,28.8772 49.6289,50.2106 47,71.5C 42.9215,72.6295 38.7548,72.7961 34.5,72C 36.2885,61.1903 37.7885,50.357 39,39.5C 36.6065,45.2874 33.9398,50.9541 31,56.5C 28.6194,57.435 26.1194,57.7683 23.5,57.5C 22.7683,51.9063 21.435,46.5729 19.5,41.5 Z"/></g>
</svg>
