<?xml version="1.0" standalone="no"?>
<!DOCTYPE svg PUBLIC "-//W3C//DTD SVG 20010904//EN"
 "http://www.w3.org/TR/2001/REC-SVG-20010904/DTD/svg10.dtd">
<svg version="1.0" xmlns="http://www.w3.org/2000/svg"
 width="1080.000000pt" height="1080.000000pt" viewBox="0 0 1080.000000 1080.000000"
 preserveAspectRatio="xMidYMid meet">
<metadata>
Created by potrace 1.14, written by Peter Selinger 2001-2017
</metadata>
<g transform="translate(0.000000,1080.000000) scale(0.100000,-0.100000)"
fill="#000000" stroke="none">
<path d="M2058 9255 c-2 -1 -37 -5 -78 -8 -41 -3 -86 -8 -100 -11 -13 -3 -42
-8 -64 -12 -21 -3 -69 -19 -106 -35 -83 -37 -136 -95 -200 -216 -26 -49 -59
-108 -73 -133 -28 -49 -101 -286 -93 -306 3 -7 2 -15 -2 -18 -7 -7 -9 -18 -17
-91 -3 -27 -9 -68 -12 -90 -8 -55 -8 -375 0 -455 13 -125 18 -163 23 -171 14
-24 19 -186 11 -337 -4 -58 -1 -94 9 -117 7 -18 11 -35 7 -38 -12 -12 -9 -152
4 -178 8 -18 11 -57 9 -113 -2 -48 2 -123 8 -166 7 -44 10 -80 8 -80 -2 0 5
-12 16 -27 17 -25 19 -52 21 -268 3 -233 5 -308 15 -635 11 -328 18 -627 21
-940 3 -320 2 -326 -20 -370 -35 -70 -39 -95 -41 -265 -1 -88 -3 -167 -3 -176
-1 -15 -8 -15 -73 3 -90 24 -205 30 -270 13 -27 -8 -52 -14 -56 -14 -30 -2
-117 -28 -168 -51 -171 -77 -327 -224 -408 -386 -25 -51 -70 -214 -84 -309
-16 -109 -6 -244 26 -378 35 -140 68 -216 140 -316 52 -75 67 -90 137 -146
110 -88 163 -113 306 -146 88 -19 166 -21 234 -6 71 17 152 40 168 49 13 7 52
1 140 -22 141 -37 225 -41 337 -15 75 18 155 50 166 66 3 5 17 1 32 -9 15 -10
47 -24 72 -31 25 -7 59 -16 75 -21 107 -31 180 -35 285 -14 19 3 204 7 410 8
206 1 389 5 405 9 20 5 47 2 75 -8 90 -32 172 -44 220 -33 104 24 150 55 200
135 l29 45 15 -25 c24 -36 96 -83 148 -95 65 -16 103 -15 180 6 36 11 72 16
80 12 7 -4 63 -20 123 -35 117 -29 221 -35 290 -17 22 6 54 13 70 16 17 3 55
18 86 34 54 28 57 28 80 11 33 -24 208 -69 294 -75 84 -7 240 29 313 72 61 36
120 99 132 143 27 97 24 132 -27 296 -14 44 -27 92 -29 107 -5 27 -5 27 50 26
53 -2 56 -3 57 -27 8 -328 21 -407 75 -481 53 -74 118 -106 299 -146 50 -11
137 -5 220 15 119 29 144 42 211 107 51 49 59 53 67 37 16 -30 95 -100 134
-118 47 -23 173 -54 237 -60 51 -5 194 25 253 52 29 13 39 13 95 0 74 -19 149
-15 286 12 36 7 60 7 79 0 18 -7 149 -8 388 -4 377 6 463 15 514 54 25 19 25
19 57 -5 37 -28 201 -73 287 -78 38 -3 90 4 152 20 l93 24 86 -20 c90 -22 188
-28 246 -16 95 19 158 40 191 61 33 21 39 22 55 10 20 -16 127 -52 178 -61 17
-2 48 -9 70 -15 96 -26 292 17 397 86 65 43 92 82 113 163 15 58 14 64 -8 154
-13 51 -43 156 -66 233 -23 77 -44 147 -46 155 -2 8 -35 123 -75 255 -39 132
-86 294 -106 359 -41 141 -52 165 -101 215 -54 55 -115 87 -217 112 -114 29
-232 31 -338 5 -42 -11 -80 -16 -83 -13 -3 3 -8 32 -10 64 -2 32 -6 72 -8 88
-3 17 -8 55 -11 85 -8 78 -9 83 -20 100 -18 28 -21 309 -10 860 4 201 7 456 8
567 1 112 4 203 7 203 3 0 6 37 7 83 14 634 14 631 41 654 38 31 46 178 12
218 -11 13 -10 20 6 100 4 22 8 43 9 47 0 3 3 9 6 12 3 4 3 24 -1 46 -4 23 -3
40 2 40 5 0 6 5 3 10 -4 6 -9 23 -11 37 -3 15 -7 29 -9 32 -2 2 4 20 14 40 16
32 17 43 6 93 -8 40 -8 59 -1 61 6 2 -3 12 -19 23 -17 10 -33 22 -36 27 -3 4
6 43 21 85 15 42 28 82 29 87 1 6 9 33 17 61 30 104 37 159 37 294 1 205 -25
446 -69 640 -3 14 -7 34 -9 45 -20 121 -45 177 -83 189 -11 4 -30 37 -49 85
-39 98 -73 152 -117 186 -55 42 -163 76 -286 90 -25 3 -56 7 -69 10 -36 7
-181 7 -215 0 -58 -12 -115 -52 -150 -107 -15 -23 -23 -26 -59 -24 -23 2 -71
14 -107 26 -91 30 -104 32 -200 33 -94 0 -192 -10 -200 -22 -3 -4 -21 -17 -40
-28 -43 -26 -113 -23 -150 7 -93 75 -94 75 -224 75 -131 -1 -176 -11 -218 -50
-15 -14 -38 -29 -50 -33 -28 -10 -1500 -8 -1515 1 -7 4 -14 4 -16 0 -6 -9
-200 -8 -214 0 -5 3 -15 2 -22 -3 -8 -4 -26 -4 -41 0 -15 4 -33 4 -40 0 -7 -5
-23 -5 -34 0 -12 4 -30 4 -41 0 -11 -4 -32 -4 -47 1 -15 4 -30 4 -33 -1 -3 -5
-15 -6 -29 0 -12 4 -29 5 -36 0 -7 -5 -23 -5 -34 0 -12 4 -30 4 -41 0 -11 -4
-24 -5 -28 -3 -8 5 -81 7 -102 3 -25 -5 -52 -5 -75 1 -14 3 -36 3 -50 -1 -14
-3 -39 -3 -57 1 -18 4 -34 4 -37 1 -3 -3 -232 -7 -508 -8 l-503 -3 -40 37
c-22 20 -51 43 -65 50 -25 12 -147 32 -165 26 -5 -1 -34 -5 -62 -8 -64 -6
-134 -39 -162 -77 -18 -24 -27 -28 -65 -26 -34 2 -52 9 -74 30 -44 42 -93 55
-196 52 -50 -2 -98 -5 -106 -7 -40 -11 -90 -33 -90 -40 0 -4 -3 -7 -7 -6 -5 1
-21 -5 -38 -13 -24 -12 -58 -15 -160 -13 -161 4 -151 2 -167 33 -26 51 -83 88
-148 97 -14 2 -39 5 -57 8 -17 2 -33 3 -35 1z"/>
<path d="M4083 2187 c-22 -34 -20 -49 7 -60 10 -4 8 -6 -7 -7 -13 -2 -28 -3
-34 -4 -8 -1 -12 -42 -12 -133 0 -73 2 -135 4 -137 7 -7 30 -8 96 -7 51 1 64
5 73 20 18 34 2 50 -53 53 -48 3 -52 5 -51 28 0 25 3 26 51 29 18 1 22 6 19
24 -2 16 -11 23 -33 25 -21 2 -33 10 -36 23 -5 17 0 19 48 19 46 0 53 3 58 22
8 28 1 38 -25 38 -16 0 -18 3 -10 13 17 20 -19 81 -49 85 -18 2 -30 -6 -46
-31z m53 -65 c-22 -5 -30 3 -21 18 5 8 11 7 22 -2 15 -12 14 -13 -1 -16z"/>
<path d="M2279 2119 c-7 -4 -9 -34 -7 -77 1 -38 1 -69 -2 -67 -3 2 -17 33 -30
69 -26 69 -51 87 -89 66 -17 -9 -19 -21 -16 -137 2 -71 3 -131 4 -135 1 -5 19
-8 41 -8 42 0 46 7 40 78 -2 34 7 27 35 -28 21 -42 30 -50 53 -50 15 0 32 4
38 8 6 4 11 60 13 143 l2 137 -36 4 c-19 2 -40 1 -46 -3z"/>
<path d="M3129 2119 c-12 -6 -15 -36 -14 -146 l0 -138 79 0 c85 0 99 8 94 52
-3 26 -6 28 -49 27 l-46 0 1 100 c1 99 1 100 -25 107 -14 3 -32 3 -40 -2z"/>
<path d="M8888 2122 c-10 -2 -19 -11 -19 -20 -4 -43 -5 -248 -2 -258 2 -6 33
-10 79 -9 80 2 94 9 94 53 0 23 -4 25 -60 26 l-35 1 0 99 c0 90 -2 99 -20 105
-11 4 -28 6 -37 3z"/>
<path d="M1845 2110 c-13 -22 4 -60 28 -60 19 0 22 -5 20 -32 -1 -18 -2 -50
-2 -70 -1 -30 -5 -38 -20 -38 -22 0 -38 -47 -21 -64 6 -6 44 -11 85 -11 68 -1
74 1 79 21 9 33 -3 54 -29 54 -21 0 -23 5 -27 61 -3 69 -1 75 27 80 15 3 20
12 20 34 l0 30 -77 3 c-48 2 -79 -1 -83 -8z"/>
<path d="M2486 2104 c-3 -7 -3 -20 -1 -30 2 -11 4 -22 4 -26 1 -4 13 -6 29 -5
l27 2 -1 -102 c0 -57 2 -103 5 -104 3 0 18 -3 33 -5 15 -3 30 1 35 8 4 7 8 56
8 108 l0 95 27 -1 c21 -1 29 5 37 26 5 15 6 32 2 37 -9 15 -199 12 -205 -3z"/>
<path d="M2810 1979 c0 -81 4 -139 10 -141 5 -1 42 -1 81 2 75 5 99 20 86 54
-5 12 -19 16 -57 16 -27 0 -50 3 -51 8 0 4 -2 15 -4 25 -2 9 1 18 6 18 5 1 14
3 19 4 6 1 19 3 31 4 15 1 20 7 17 24 -2 17 -11 23 -34 25 -21 2 -34 10 -37
21 -4 16 2 18 45 18 52 0 68 11 68 46 0 16 -9 18 -90 16 l-90 -3 0 -137z"/>
<path d="M3414 2106 c-10 -26 1 -51 24 -54 20 -3 22 -9 22 -72 0 -64 -2 -69
-22 -72 -15 -2 -24 -11 -26 -26 -6 -39 12 -48 89 -47 62 0 73 3 79 20 11 32 0
55 -26 55 -21 0 -24 5 -25 40 -1 22 -2 52 -3 68 -1 21 4 28 21 30 24 3 41 41
28 61 -10 17 -154 14 -161 -3z"/>
<path d="M3748 2103 c-37 -24 -53 -67 -52 -140 3 -100 58 -152 126 -118 28 13
32 13 43 -1 6 -9 20 -14 31 -12 17 3 19 12 20 81 l1 77 -59 0 c-45 0 -60 -4
-65 -16 -9 -23 11 -50 33 -46 18 3 18 2 2 -14 -21 -21 -45 -12 -58 21 -24 64
4 111 61 103 25 -4 33 -1 42 19 8 19 7 27 -5 40 -24 23 -88 27 -120 6z"/>
<path d="M4350 2110 c-12 -7 -13 -20 -11 -157 l1 -123 45 0 c25 0 44 3 44 8
-1 4 -1 27 0 52 l1 45 28 -50 c24 -45 31 -50 61 -50 43 0 46 10 46 165 l0 115
-45 0 -45 0 2 -75 c1 -41 -1 -68 -4 -60 -3 8 -19 43 -34 77 -25 55 -32 63 -54
61 -14 -1 -30 -5 -35 -8z"/>
<path d="M4765 2104 c-41 -21 -63 -52 -70 -100 -24 -155 137 -237 205 -104
l21 40 -26 12 c-23 10 -29 9 -51 -16 -31 -33 -52 -31 -76 10 -17 29 -17 31 1
65 20 38 58 51 73 25 12 -21 54 -21 62 0 10 26 7 34 -20 59 -31 29 -75 32
-119 9z"/>
<path d="M5037 2101 c-6 -25 10 -51 34 -51 17 0 19 -6 17 -69 -1 -38 -4 -69
-7 -69 -33 3 -41 -4 -41 -37 0 -21 5 -36 13 -36 38 -4 134 -5 145 -1 6 2 12
19 12 38 0 30 -3 34 -25 34 -29 0 -27 -4 -30 78 -3 59 -2 62 20 62 26 0 40 26
29 54 -5 13 -21 16 -84 16 -67 0 -78 -2 -83 -19z"/>
<path d="M5408 2108 c-15 -11 -82 -257 -74 -266 18 -18 98 -4 95 16 -6 36 3
84 17 89 22 8 32 -6 39 -57 6 -46 17 -60 51 -60 41 0 42 16 4 146 -20 69 -43
130 -51 135 -20 13 -63 11 -81 -3z m62 -81 c0 -14 -6 -24 -15 -24 -16 0 -18 7
-9 31 9 24 24 19 24 -7z"/>
<path d="M6027 2108 c-25 -19 -83 -258 -65 -269 12 -8 65 -6 74 3 5 6 12 48
13 81 1 24 5 28 23 25 19 -2 24 -11 30 -50 3 -26 9 -52 13 -57 9 -16 65 -13
71 3 8 20 -63 258 -79 268 -18 12 -61 10 -80 -4z m63 -83 c0 -11 -29 -30 -35
-23 -2 2 1 13 6 26 9 24 29 22 29 -3z"/>
<path d="M6360 2106 l-35 -13 -2 -126 c-2 -113 0 -128 16 -136 10 -6 27 -7 39
-4 19 5 22 13 23 57 l0 51 27 -52 c22 -44 30 -52 49 -48 71 12 77 25 38 83
-30 44 -30 47 -5 79 25 32 26 64 3 92 -23 27 -103 36 -153 17z m84 -77 c-22
-25 -40 -24 -47 2 -6 24 30 43 51 26 10 -8 9 -14 -4 -28z"/>
<path d="M6654 2111 c-2 -2 -4 -19 -4 -37 0 -30 2 -32 33 -30 l32 3 -3 -103
c-3 -96 -2 -103 17 -109 12 -3 30 -3 41 0 19 6 21 14 19 98 -1 121 -2 116 21
112 26 -5 52 22 48 49 -3 20 -9 21 -101 21 -54 0 -100 -1 -103 -4z"/>
<path d="M6983 2109 c-5 -5 -8 -21 -5 -35 3 -17 11 -24 29 -24 23 0 24 -2 21
-67 -3 -62 -5 -68 -25 -71 -19 -3 -23 -10 -23 -38 0 -19 3 -35 8 -35 28 -4
130 -6 145 -2 12 3 17 14 17 39 0 30 -3 34 -27 34 -28 0 -28 1 -31 70 -2 69
-2 70 23 70 24 0 28 4 28 35 0 8 -1 20 -2 25 -1 13 -144 13 -158 -1z"/>
<path d="M7273 1988 c1 -73 6 -139 10 -145 5 -7 19 -13 33 -13 29 0 42 26 39
82 -2 33 1 38 21 38 34 0 57 27 43 51 -6 12 -17 18 -27 15 -22 -7 -47 8 -38
23 4 6 22 11 41 11 36 0 51 22 39 54 -5 13 -21 16 -85 16 l-79 0 3 -132z"/>
<path d="M7562 2108 c-15 -19 4 -58 28 -58 18 0 20 -6 18 -71 -1 -62 -4 -70
-19 -66 -19 5 -29 -11 -29 -48 0 -29 15 -33 100 -31 54 1 65 5 68 20 7 35 -7
63 -30 62 -21 -1 -22 4 -24 67 -2 64 -1 67 21 67 26 0 40 26 29 54 -5 13 -21
16 -79 16 -46 0 -76 -5 -83 -12z"/>
<path d="M7935 2110 c-76 -32 -103 -134 -58 -222 14 -29 59 -58 90 -58 30 0
81 37 99 71 15 30 15 33 0 45 -23 16 -37 13 -64 -14 -28 -28 -48 -28 -67 2
-22 34 -11 94 21 108 18 8 29 7 48 -6 36 -23 55 -20 62 11 13 52 -67 90 -131
63z"/>
<path d="M8204 2106 c-10 -26 1 -51 24 -54 20 -3 22 -9 22 -72 0 -64 -2 -69
-22 -72 -25 -3 -37 -43 -19 -61 6 -6 42 -11 81 -12 78 -3 93 8 80 55 -4 19
-12 24 -28 22 -13 -2 -22 2 -23 10 0 7 -2 38 -3 68 -1 51 0 55 24 60 20 4 25
11 25 35 l0 30 -78 3 c-61 2 -78 0 -83 -12z"/>
<path d="M8573 2112 c-14 -9 -29 -47 -37 -93 -3 -19 -14 -65 -25 -102 l-20
-68 25 -9 c54 -21 70 -7 76 60 6 77 52 62 59 -20 4 -38 14 -50 44 -50 46 0 47
10 9 141 -20 68 -40 129 -45 134 -10 13 -69 18 -86 7z m60 -81 c3 -12 -1 -22
-11 -26 -20 -7 -22 -4 -15 23 7 27 19 28 26 3z"/>
</g>
</svg>
